<svg xmlns:dc="http://purl.org/dc/elements/1.1/" xmlns:cc="http://creativecommons.org/ns#" xmlns:rdf="http://www.w3.org/1999/02/22-rdf-syntax-ns#" xmlns:svg="http://www.w3.org/2000/svg" xmlns="http://www.w3.org/2000/svg" xmlns:sodipodi="http://sodipodi.sourceforge.net/DTD/sodipodi-0.dtd" xmlns:inkscape="http://www.inkscape.org/namespaces/inkscape" viewBox="0 0 100 125" version="1.1" x="0px" y="0px"><g transform="translate(0,-952.36216)"><path style="opacity:1;fill:#000000;fill-opacity:1;stroke:none;stroke-width:16;stroke-linecap:butt;stroke-linejoin:miter;stroke-miterlimit:4;stroke-dasharray:none;stroke-dashoffset:0;stroke-opacity:1" d="M 50 5 A 45 45 0 0 0 5 50 A 45 45 0 0 0 50 95 A 45 45 0 0 0 95 50 A 45 45 0 0 0 50 5 z M 67.794922 23.998047 A 0.4293828 0.4293828 0 0 1 67.919922 24.017578 L 69.515625 24.527344 A 0.4293828 0.4293828 0 0 1 69.779297 25.105469 L 69.042969 26.824219 L 68.988281 27.650391 L 69.294922 29.1875 A 0.4293828 0.4293828 0 0 1 69.232422 29.511719 L 68.394531 30.765625 L 67.960938 34.171875 A 0.4293828 0.4293828 0 0 1 67.902344 34.34375 L 64.394531 40.082031 A 0.4293828 0.4293828 0 0 1 64.392578 40.091797 L 62.490234 43.138672 L 61.353516 45.347656 L 61.453125 45.837891 A 0.4293828 0.4293828 0 0 1 61.394531 46.150391 L 57.568359 52.208984 A 0.4293828 0.4293828 0 0 1 57.525391 52.267578 L 49.873047 60.748047 A 0.4293828 0.4293828 0 0 1 49.751953 60.841797 L 45.394531 63.115234 L 40.917969 66.898438 L 34.904297 72.974609 L 33.080078 75.806641 A 0.4293828 0.4293828 0 0 1 32.378906 75.833984 L 30.275391 73.091797 A 0.4293828 0.4293828 0 0 1 30.185547 72.832031 L 30.185547 58.867188 A 0.4293828 0.4293828 0 0 1 30.296875 58.578125 L 31.560547 57.189453 L 34.353516 53.505859 A 0.4293828 0.4293828 0 0 1 34.677734 53.337891 L 36.457031 53.255859 L 36.794922 53.060547 A 0.4293828 0.4293828 0 0 1 37.027344 53.001953 L 37.398438 53.017578 L 37.767578 52.478516 L 37.861328 52.162109 A 0.4293828 0.4293828 0 0 1 38.080078 51.898438 L 40.560547 50.658203 A 0.4293828 0.4293828 0 0 1 40.679688 50.619141 L 42.257812 50.349609 A 0.4293828 0.4293828 0 0 1 42.365234 50.337891 L 45.544922 50.59375 L 55.867188 39.808594 L 53.320312 39.744141 A 0.4293828 0.4293828 0 0 1 53.197266 39.720703 L 42.105469 36.023438 A 0.4293828 0.4293828 0 0 1 41.986328 35.962891 L 39.642578 34.25 A 0.4293828 0.4293828 0 0 1 39.517578 34.107422 L 38.742188 32.679688 L 38.363281 32.550781 A 0.4293828 0.4293828 0 0 1 38.074219 32.214844 L 38.007812 31.810547 L 37.425781 31.238281 A 0.4293828 0.4293828 0 0 1 37.339844 31.119141 L 36.830078 30.068359 A 0.4293828 0.4293828 0 0 1 36.810547 30.025391 L 36.652344 29.578125 A 0.4293828 0.4293828 0 0 1 36.712891 29.175781 L 37.871094 27.640625 L 38.652344 26.142578 A 0.4293828 0.4293828 0 0 1 38.896484 25.933594 L 39.087891 25.869141 A 0.4293828 0.4293828 0 0 1 39.535156 25.982422 L 42.972656 29.601562 L 45.763672 29.486328 L 48.566406 28.365234 A 0.4293828 0.4293828 0 0 1 48.804688 28.341797 L 51.021484 28.761719 L 54.462891 27.041016 A 0.4293828 0.4293828 0 0 1 54.695312 26.998047 L 55.976562 27.119141 L 57.652344 26.820312 L 58.878906 26.269531 A 0.4293828 0.4293828 0 0 1 59.210938 26.259766 L 60.236328 26.658203 L 63.457031 25.929688 L 66.025391 24.9375 L 66.162109 24.388672 A 0.4293828 0.4293828 0 0 1 66.556641 24.0625 L 67.767578 24 A 0.4293828 0.4293828 0 0 1 67.794922 23.998047 z " transform="translate(0,952.36216)"/></g><text x="0" y="115" fill="#000000" font-size="5px" font-weight="bold" font-family="'Helvetica Neue', Helvetica, Arial-Unicode, Arial, Sans-serif">Created by P Thanga Vignesh</text><text x="0" y="120" fill="#000000" font-size="5px" font-weight="bold" font-family="'Helvetica Neue', Helvetica, Arial-Unicode, Arial, Sans-serif">from the Noun Project</text></svg>