<svg id="Layer_1" height="512" viewBox="0 0 512 512" width="512" xmlns="http://www.w3.org/2000/svg" data-name="Layer 1"><path d="m397.48 186h-282.96l-.52.47v276.6c0 17.64 14.74 31.93 32.4 31.93h219.2c17.66 0 32.4-14.29 32.4-31.93v-276.6z" fill="#556d8d"/><path d="m393.92 107.055a33.074 33.074 0 0 0 -11.26-2.055h-264.06a21.731 21.731 0 0 0 -21.6 21.45v18.59a58.5 58.5 0 0 0 17.34 41.32c.92.92 103.07 89.98 103.07 89.98a58.658 58.658 0 0 0 77.045 0s102.262-89.06 103.182-89.98a58.513 58.513 0 0 0 17.363-41.32v-7.94a32.214 32.214 0 0 0 -21.08-30.045z" fill="#eb6141"/><path d="m144 463.07v-276.6l.52-.47h-30l-.52.47v276.6c0 17.64 14.74 31.93 32.4 31.93h30c-17.66 0-32.4-14.29-32.4-31.93z" fill="#415972"/><path d="m144.34 186.36a58.5 58.5 0 0 1 -17.34-41.32v-18.59a21.731 21.731 0 0 1 21.6-21.45h-30a21.731 21.731 0 0 0 -21.6 21.45v18.59a58.5 58.5 0 0 0 17.34 41.32c.92.92 103.07 89.98 103.07 89.98a58.641 58.641 0 0 0 53.523 12.474 58.347 58.347 0 0 1 -23.523-12.474s-102.15-89.06-103.07-89.98z" fill="#ce523a"/><path d="m450.04 53.26s27.65 121.63-5.92 262.1v.2h-25.62v-.2c33.57-140.47-6.46-251.59-6.46-251.59 7.17-9.69 15.55-15.45 24.53-15.45 4.68 0 9.2 2.41 13.47 4.94z" fill="#496275"/><path d="m93.25 315.25v.31h-24.69v-.31c-33.57-140.47-5.92-261.99-5.92-261.99 4.27-2.53 8.79-4.94 13.47-4.94 9.03 0 17.47 5.72 24.67 15.38 0 0-41.1 111.08-7.53 251.55z" fill="#496275"/><g fill="#556d8d"><path d="m450.04 53.26c-4.27-2.53-8.79-4.94-13.47-4.94-8.98 0-17.36 5.76-24.53 15.45-7.77 10.51-14.1 25.63-18.18 43.05l-.12.32a32 32 0 0 0 -11.08-1.97h-41.35c7.4-49.64 36.56-92.51 70.57-87.52 18.64 2.74 38.16 35.61 38.16 35.61z"/><path d="m171.38 105.17h-52.78c-4.06-16.8-10.25-31.31-17.82-41.47-7.2-9.66-15.64-15.38-24.67-15.38-4.68 0-9.2 2.41-13.47 4.94 0 0 22.88-32.62 38.16-35.61 33.74-6.6 63.16 37.87 70.58 87.52z"/><path d="m304 158v17.52c0 4.42 3.49 8.48 7.91 8.48h47.4c4.42 0 7.69-4.06 7.69-8.48v-17.52z"/></g><path d="m315 184v75.26c0 11.28 8.73 20.74 20.04 20.74h1.14a21.024 21.024 0 0 0 20.82-20.74v-75.26z" fill="#f3e08c"/><path d="m354.8 343.46v93.64a12.786 12.786 0 0 1 -12.79 12.78h-172.02a12.786 12.786 0 0 1 -12.79-12.78v-93.64z" fill="#f3e08c"/><path d="m448.16 315h-50.16v116h50.16a12.694 12.694 0 0 0 12.84-12.62v-91.05c0-7.05-5.77-12.33-12.84-12.33z" fill="#eb6141"/><path d="m63.84 315c-7.07 0-12.84 5.28-12.84 12.33v91.05a12.694 12.694 0 0 0 12.84 12.62h50.16v-116z" fill="#eb6141"/><path d="m335.967 217.692a9.241 9.241 0 1 1 9.5-9.237 9.382 9.382 0 0 1 -9.5 9.237z" fill="#d1bf75"/><path d="m335.967 238.957a9.241 9.241 0 1 1 9.5-9.237 9.382 9.382 0 0 1 -9.5 9.237z" fill="#d1bf75"/><path d="m335.967 260.222a9.241 9.241 0 1 1 9.5-9.238 9.382 9.382 0 0 1 -9.5 9.238z" fill="#d1bf75"/><path d="m136.288 301.75a6 6 0 0 1 -6-6v-5.907a6 6 0 0 1 12 0v5.907a6 6 0 0 1 -6 6z" fill="#f4f8fc"/><path d="m136.288 400.258a6 6 0 0 1 -6-6v-80.684a6 6 0 0 1 12 0v80.684a6 6 0 0 1 -6 6z" fill="#f4f8fc"/><path d="m145 158v17.52c0 4.42 3.27 8.48 7.69 8.48h47.4c4.42 0 7.91-4.06 7.91-8.48v-17.52z" fill="#556d8d"/><path d="m155 184v75.26a21.024 21.024 0 0 0 20.82 20.74h1.14c11.31 0 20.04-9.46 20.04-20.74v-75.26z" fill="#f3e08c"/><path d="m176.033 216.628a9.241 9.241 0 1 1 9.5-9.237 9.382 9.382 0 0 1 -9.5 9.237z" fill="#d1bf75"/><path d="m176.033 259.157a9.241 9.241 0 1 1 9.5-9.237 9.381 9.381 0 0 1 -9.5 9.237z" fill="#d1bf75"/><path d="m176.033 237.893a9.241 9.241 0 1 1 9.5-9.237 9.382 9.382 0 0 1 -9.5 9.237z" fill="#d1bf75"/></svg>